<?xml version="1.0" encoding="UTF-8" standalone="no"?><svg xmlns="http://www.w3.org/2000/svg" xmlns:xlink="http://www.w3.org/1999/xlink" contentStyleType="text/css" height="387.5px" preserveAspectRatio="none" style="width:1347px;height:387px;background:#FFFFFF;" version="1.1" viewBox="0 0 1347 387" width="1347.5px" zoomAndPan="magnify"><defs/><g><!--MD5=[e7b66ca87ce50581c3adcae016f378b8]
class hsff--><g id="elem_hsff"><rect codeLine="5" fill="#90EE90" height="60" id="hsff" rx="3.125" ry="3.125" style="stroke:#181818;stroke-width:0.625;" width="288.75" x="98.125" y="163.75"/><ellipse cx="116.875" cy="183.75" fill="#ADD1B2" rx="13.75" ry="13.75" style="stroke:#181818;stroke-width:1.25;"/><path d="M120.332,178.5938 Q120.5273,178.3203 120.7617,178.1836 Q120.9961,178.0469 121.2695,178.0469 Q121.7383,178.0469 122.0313,178.3789 Q122.3242,178.6914 122.3242,179.4531 L122.3242,181.2695 Q122.3242,182.0313 122.0313,182.3633 Q121.7383,182.6953 121.2695,182.6953 Q120.8398,182.6953 120.5859,182.4414 Q120.332,182.207 120.1953,181.5625 Q120.1367,181.1133 119.9023,180.8789 Q119.4922,180.4102 118.7305,180.1367 Q117.9688,179.8633 117.1875,179.8633 Q116.2305,179.8633 115.4297,180.2734 Q114.6484,180.6836 114.0234,181.6211 Q113.418,182.5586 113.418,183.8477 L113.418,185.2148 Q113.418,186.7578 114.5313,187.793 Q115.6445,188.8086 117.6367,188.8086 Q118.8086,188.8086 119.6289,188.4961 Q120.1172,188.3008 120.6445,187.7539 Q120.9766,187.4219 121.1523,187.3242 Q121.3477,187.2266 121.6016,187.2266 Q122.0117,187.2266 122.3242,187.5586 Q122.6563,187.8711 122.6563,188.3008 Q122.6563,188.7305 122.2266,189.2383 Q121.6016,189.9609 120.6055,190.3711 Q119.2578,190.9375 117.6367,190.9375 Q115.7422,190.9375 114.2383,190.1563 Q113.0078,189.5313 112.1484,188.2031 Q111.2891,186.8555 111.2891,185.2539 L111.2891,183.8086 Q111.2891,182.1484 112.0508,180.7227 Q112.832,179.2773 114.1992,178.5156 Q115.5664,177.7344 117.1094,177.7344 Q118.0273,177.7344 118.8281,177.9492 Q119.6484,178.1445 120.332,178.5938 Z " fill="#000000"/><text fill="#000000" font-family="sans-serif" font-size="17.5" lengthAdjust="spacing" textLength="248.75" x="134.375" y="189.8169">HibernteSessionFactoryFactory</text><line style="stroke:#181818;stroke-width:0.625;" x1="99.375" x2="385.625" y1="203.75" y2="203.75"/><line style="stroke:#181818;stroke-width:0.625;" x1="99.375" x2="385.625" y1="213.75" y2="213.75"/></g><!--MD5=[9a247f74696882179a492ab5ab0ccb2c]
class config--><g id="elem_config"><rect codeLine="6" fill="#CD5C5C" height="60" id="config" rx="3.125" ry="3.125" style="stroke:#181818;stroke-width:0.625;" width="146.25" x="590.625" y="163.75"/><ellipse cx="609.375" cy="183.75" fill="#ADD1B2" rx="13.75" ry="13.75" style="stroke:#181818;stroke-width:1.25;"/><path d="M612.832,178.5938 Q613.0273,178.3203 613.2617,178.1836 Q613.4961,178.0469 613.7695,178.0469 Q614.2383,178.0469 614.5313,178.3789 Q614.8242,178.6914 614.8242,179.4531 L614.8242,181.2695 Q614.8242,182.0313 614.5313,182.3633 Q614.2383,182.6953 613.7695,182.6953 Q613.3398,182.6953 613.0859,182.4414 Q612.832,182.207 612.6953,181.5625 Q612.6367,181.1133 612.4023,180.8789 Q611.9922,180.4102 611.2305,180.1367 Q610.4688,179.8633 609.6875,179.8633 Q608.7305,179.8633 607.9297,180.2734 Q607.1484,180.6836 606.5234,181.6211 Q605.918,182.5586 605.918,183.8477 L605.918,185.2148 Q605.918,186.7578 607.0313,187.793 Q608.1445,188.8086 610.1367,188.8086 Q611.3086,188.8086 612.1289,188.4961 Q612.6172,188.3008 613.1445,187.7539 Q613.4766,187.4219 613.6523,187.3242 Q613.8477,187.2266 614.1016,187.2266 Q614.5117,187.2266 614.8242,187.5586 Q615.1563,187.8711 615.1563,188.3008 Q615.1563,188.7305 614.7266,189.2383 Q614.1016,189.9609 613.1055,190.3711 Q611.7578,190.9375 610.1367,190.9375 Q608.2422,190.9375 606.7383,190.1563 Q605.5078,189.5313 604.6484,188.2031 Q603.7891,186.8555 603.7891,185.2539 L603.7891,183.8086 Q603.7891,182.1484 604.5508,180.7227 Q605.332,179.2773 606.6992,178.5156 Q608.0664,177.7344 609.6094,177.7344 Q610.5273,177.7344 611.3281,177.9492 Q612.1484,178.1445 612.832,178.5938 Z " fill="#000000"/><text fill="#000000" font-family="sans-serif" font-size="17.5" lengthAdjust="spacing" textLength="106.25" x="626.875" y="189.8169">Configuration</text><line style="stroke:#181818;stroke-width:0.625;" x1="591.875" x2="735.625" y1="203.75" y2="203.75"/><line style="stroke:#181818;stroke-width:0.625;" x1="591.875" x2="735.625" y1="213.75" y2="213.75"/></g><!--MD5=[be6a4a7ce31afc157adea8903a014e0c]
class entity1--><g id="elem_entity1"><rect codeLine="8" fill="#F5DEB3" height="60" id="entity1" rx="3.125" ry="3.125" style="stroke:#181818;stroke-width:0.625;" width="170" x="365" y="8.75"/><ellipse cx="383.75" cy="28.75" fill="#ADD1B2" rx="13.75" ry="13.75" style="stroke:#181818;stroke-width:1.25;"/><path d="M387.207,23.5938 Q387.4023,23.3203 387.6367,23.1836 Q387.8711,23.0469 388.1445,23.0469 Q388.6133,23.0469 388.9063,23.3789 Q389.1992,23.6914 389.1992,24.4531 L389.1992,26.2695 Q389.1992,27.0313 388.9063,27.3633 Q388.6133,27.6953 388.1445,27.6953 Q387.7148,27.6953 387.4609,27.4414 Q387.207,27.207 387.0703,26.5625 Q387.0117,26.1133 386.7773,25.8789 Q386.3672,25.4102 385.6055,25.1367 Q384.8438,24.8633 384.0625,24.8633 Q383.1055,24.8633 382.3047,25.2734 Q381.5234,25.6836 380.8984,26.6211 Q380.293,27.5586 380.293,28.8477 L380.293,30.2148 Q380.293,31.7578 381.4063,32.793 Q382.5195,33.8086 384.5117,33.8086 Q385.6836,33.8086 386.5039,33.4961 Q386.9922,33.3008 387.5195,32.7539 Q387.8516,32.4219 388.0273,32.3242 Q388.2227,32.2266 388.4766,32.2266 Q388.8867,32.2266 389.1992,32.5586 Q389.5313,32.8711 389.5313,33.3008 Q389.5313,33.7305 389.1016,34.2383 Q388.4766,34.9609 387.4805,35.3711 Q386.1328,35.9375 384.5117,35.9375 Q382.6172,35.9375 381.1133,35.1563 Q379.8828,34.5313 379.0234,33.2031 Q378.1641,31.8555 378.1641,30.2539 L378.1641,28.8086 Q378.1641,27.1484 378.9258,25.7227 Q379.707,24.2773 381.0742,23.5156 Q382.4414,22.7344 383.9844,22.7344 Q384.9023,22.7344 385.7031,22.9492 Q386.5234,23.1445 387.207,23.5938 Z " fill="#000000"/><text fill="#000000" font-family="sans-serif" font-size="17.5" lengthAdjust="spacing" textLength="130" x="401.25" y="34.8169">Annotated Entity</text><line style="stroke:#181818;stroke-width:0.625;" x1="366.25" x2="533.75" y1="48.75" y2="48.75"/><line style="stroke:#181818;stroke-width:0.625;" x1="366.25" x2="533.75" y1="58.75" y2="58.75"/></g><!--MD5=[53844e353cb2d19d1cbdc1a9a92875d8]
class entity2--><g id="elem_entity2"><rect codeLine="9" fill="#F5DEB3" height="60" id="entity2" rx="3.125" ry="3.125" style="stroke:#181818;stroke-width:0.625;" width="170" x="578.75" y="8.75"/><ellipse cx="597.5" cy="28.75" fill="#ADD1B2" rx="13.75" ry="13.75" style="stroke:#181818;stroke-width:1.25;"/><path d="M600.957,23.5938 Q601.1523,23.3203 601.3867,23.1836 Q601.6211,23.0469 601.8945,23.0469 Q602.3633,23.0469 602.6563,23.3789 Q602.9492,23.6914 602.9492,24.4531 L602.9492,26.2695 Q602.9492,27.0313 602.6563,27.3633 Q602.3633,27.6953 601.8945,27.6953 Q601.4648,27.6953 601.2109,27.4414 Q600.957,27.207 600.8203,26.5625 Q600.7617,26.1133 600.5273,25.8789 Q600.1172,25.4102 599.3555,25.1367 Q598.5938,24.8633 597.8125,24.8633 Q596.8555,24.8633 596.0547,25.2734 Q595.2734,25.6836 594.6484,26.6211 Q594.043,27.5586 594.043,28.8477 L594.043,30.2148 Q594.043,31.7578 595.1563,32.793 Q596.2695,33.8086 598.2617,33.8086 Q599.4336,33.8086 600.2539,33.4961 Q600.7422,33.3008 601.2695,32.7539 Q601.6016,32.4219 601.7773,32.3242 Q601.9727,32.2266 602.2266,32.2266 Q602.6367,32.2266 602.9492,32.5586 Q603.2813,32.8711 603.2813,33.3008 Q603.2813,33.7305 602.8516,34.2383 Q602.2266,34.9609 601.2305,35.3711 Q599.8828,35.9375 598.2617,35.9375 Q596.3672,35.9375 594.8633,35.1563 Q593.6328,34.5313 592.7734,33.2031 Q591.9141,31.8555 591.9141,30.2539 L591.9141,28.8086 Q591.9141,27.1484 592.6758,25.7227 Q593.457,24.2773 594.8242,23.5156 Q596.1914,22.7344 597.7344,22.7344 Q598.6523,22.7344 599.4531,22.9492 Q600.2734,23.1445 600.957,23.5938 Z " fill="#000000"/><text fill="#000000" font-family="sans-serif" font-size="17.5" lengthAdjust="spacing" textLength="130" x="615" y="34.8169">Annotated Entity</text><line style="stroke:#181818;stroke-width:0.625;" x1="580" x2="747.5" y1="48.75" y2="48.75"/><line style="stroke:#181818;stroke-width:0.625;" x1="580" x2="747.5" y1="58.75" y2="58.75"/></g><!--MD5=[8940159d0d67428b7a879c1006401da4]
class entity3--><g id="elem_entity3"><rect codeLine="10" fill="#F5DEB3" height="60" id="entity3" rx="3.125" ry="3.125" style="stroke:#181818;stroke-width:0.625;" width="170" x="792.5" y="8.75"/><ellipse cx="811.25" cy="28.75" fill="#ADD1B2" rx="13.75" ry="13.75" style="stroke:#181818;stroke-width:1.25;"/><path d="M814.707,23.5938 Q814.9023,23.3203 815.1367,23.1836 Q815.3711,23.0469 815.6445,23.0469 Q816.1133,23.0469 816.4063,23.3789 Q816.6992,23.6914 816.6992,24.4531 L816.6992,26.2695 Q816.6992,27.0313 816.4063,27.3633 Q816.1133,27.6953 815.6445,27.6953 Q815.2148,27.6953 814.9609,27.4414 Q814.707,27.207 814.5703,26.5625 Q814.5117,26.1133 814.2773,25.8789 Q813.8672,25.4102 813.1055,25.1367 Q812.3438,24.8633 811.5625,24.8633 Q810.6055,24.8633 809.8047,25.2734 Q809.0234,25.6836 808.3984,26.6211 Q807.793,27.5586 807.793,28.8477 L807.793,30.2148 Q807.793,31.7578 808.9063,32.793 Q810.0195,33.8086 812.0117,33.8086 Q813.1836,33.8086 814.0039,33.4961 Q814.4922,33.3008 815.0195,32.7539 Q815.3516,32.4219 815.5273,32.3242 Q815.7227,32.2266 815.9766,32.2266 Q816.3867,32.2266 816.6992,32.5586 Q817.0313,32.8711 817.0313,33.3008 Q817.0313,33.7305 816.6016,34.2383 Q815.9766,34.9609 814.9805,35.3711 Q813.6328,35.9375 812.0117,35.9375 Q810.1172,35.9375 808.6133,35.1563 Q807.3828,34.5313 806.5234,33.2031 Q805.6641,31.8555 805.6641,30.2539 L805.6641,28.8086 Q805.6641,27.1484 806.4258,25.7227 Q807.207,24.2773 808.5742,23.5156 Q809.9414,22.7344 811.4844,22.7344 Q812.4023,22.7344 813.2031,22.9492 Q814.0234,23.1445 814.707,23.5938 Z " fill="#000000"/><text fill="#000000" font-family="sans-serif" font-size="17.5" lengthAdjust="spacing" textLength="130" x="828.75" y="34.8169">Annotated Entity</text><line style="stroke:#181818;stroke-width:0.625;" x1="793.75" x2="961.25" y1="48.75" y2="48.75"/><line style="stroke:#181818;stroke-width:0.625;" x1="793.75" x2="961.25" y1="58.75" y2="58.75"/></g><!--MD5=[6a88aea038141ee488e61f39bf1ca119]
entity cfg--><g id="elem_cfg"><path d="M858.125,174.375 L858.125,212.6758 A3.125,3.125 0 0 0 861.25,215.8008 L1023.75,215.8008 A3.125,3.125 0 0 0 1026.875,212.6758 L1026.875,183.75 L1014.375,171.25 L861.25,171.25 A3.125,3.125 0 0 0 858.125,174.375 " fill="#FFFACD" style="stroke:#181818;stroke-width:0.625;"/><path d="M1014.375,171.25 L1014.375,180.625 A3.125,3.125 0 0 0 1017.5,183.75 L1026.875,183.75 " fill="#FFFACD" style="stroke:#181818;stroke-width:0.625;"/><text fill="#000000" font-family="sans-serif" font-size="17.5" lengthAdjust="spacing" textLength="143.75" x="870.625" y="199.5923">hibernate.hbm.xml</text></g><!--MD5=[b7a07a4cbabf313743fbcc09275d2ef8]
entity mapping1--><g id="elem_mapping1"><path d="M593.125,329.375 L593.125,367.6758 A3.125,3.125 0 0 0 596.25,370.8008 L793.75,370.8008 A3.125,3.125 0 0 0 796.875,367.6758 L796.875,338.75 L784.375,326.25 L596.25,326.25 A3.125,3.125 0 0 0 593.125,329.375 " fill="#FFFACD" style="stroke:#181818;stroke-width:0.625;"/><path d="M784.375,326.25 L784.375,335.625 A3.125,3.125 0 0 0 787.5,338.75 L796.875,338.75 " fill="#FFFACD" style="stroke:#181818;stroke-width:0.625;"/><text fill="#000000" font-family="sans-serif" font-size="17.5" lengthAdjust="spacing" textLength="178.75" x="605.625" y="354.5923">entitymapping.hbm.xml</text></g><!--MD5=[5192610a8347df88657f0c0410e5ef09]
entity mapping2--><g id="elem_mapping2"><path d="M840.625,329.375 L840.625,367.6758 A3.125,3.125 0 0 0 843.75,370.8008 L1041.25,370.8008 A3.125,3.125 0 0 0 1044.375,367.6758 L1044.375,338.75 L1031.875,326.25 L843.75,326.25 A3.125,3.125 0 0 0 840.625,329.375 " fill="#FFFACD" style="stroke:#181818;stroke-width:0.625;"/><path d="M1031.875,326.25 L1031.875,335.625 A3.125,3.125 0 0 0 1035,338.75 L1044.375,338.75 " fill="#FFFACD" style="stroke:#181818;stroke-width:0.625;"/><text fill="#000000" font-family="sans-serif" font-size="17.5" lengthAdjust="spacing" textLength="178.75" x="853.125" y="354.5923">entitymapping.hbm.xml</text></g><!--MD5=[cdba8031a7d50c3f8baa59a230cd2eac]
entity mapping3--><g id="elem_mapping3"><path d="M1088.125,329.375 L1088.125,367.6758 A3.125,3.125 0 0 0 1091.25,370.8008 L1288.75,370.8008 A3.125,3.125 0 0 0 1291.875,367.6758 L1291.875,338.75 L1279.375,326.25 L1091.25,326.25 A3.125,3.125 0 0 0 1088.125,329.375 " fill="#FFFACD" style="stroke:#181818;stroke-width:0.625;"/><path d="M1279.375,326.25 L1279.375,335.625 A3.125,3.125 0 0 0 1282.5,338.75 L1291.875,338.75 " fill="#FFFACD" style="stroke:#181818;stroke-width:0.625;"/><text fill="#000000" font-family="sans-serif" font-size="17.5" lengthAdjust="spacing" textLength="178.75" x="1100.625" y="354.5923">entitymapping.hbm.xml</text></g><!--MD5=[c9fe75a0f3bb95273c3c1314835565ad]
entity mapping4--><g id="elem_mapping4"><path d="M1135.625,174.375 L1135.625,212.6758 A3.125,3.125 0 0 0 1138.75,215.8008 L1336.25,215.8008 A3.125,3.125 0 0 0 1339.375,212.6758 L1339.375,183.75 L1326.875,171.25 L1138.75,171.25 A3.125,3.125 0 0 0 1135.625,174.375 " fill="#FFFACD" style="stroke:#181818;stroke-width:0.625;"/><path d="M1326.875,171.25 L1326.875,180.625 A3.125,3.125 0 0 0 1330,183.75 L1339.375,183.75 " fill="#FFFACD" style="stroke:#181818;stroke-width:0.625;"/><text fill="#000000" font-family="sans-serif" font-size="17.5" lengthAdjust="spacing" textLength="178.75" x="1148.125" y="199.5923">entitymapping.hbm.xml</text></g><!--MD5=[7fc98f06deadd3ed3ae9a6b344d56092]
class dao1--><g id="elem_dao1"><rect codeLine="19" fill="#2E8B57" height="60" id="dao1" rx="3.125" ry="3.125" style="stroke:#181818;stroke-width:0.625;" width="70" x="8.75" y="318.75"/><ellipse cx="27.5" cy="338.75" fill="#ADD1B2" rx="13.75" ry="13.75" style="stroke:#181818;stroke-width:1.25;"/><path d="M30.957,333.5938 Q31.1523,333.3203 31.3867,333.1836 Q31.6211,333.0469 31.8945,333.0469 Q32.3633,333.0469 32.6563,333.3789 Q32.9492,333.6914 32.9492,334.4531 L32.9492,336.2695 Q32.9492,337.0313 32.6563,337.3633 Q32.3633,337.6953 31.8945,337.6953 Q31.4648,337.6953 31.2109,337.4414 Q30.957,337.207 30.8203,336.5625 Q30.7617,336.1133 30.5273,335.8789 Q30.1172,335.4102 29.3555,335.1367 Q28.5938,334.8633 27.8125,334.8633 Q26.8555,334.8633 26.0547,335.2734 Q25.2734,335.6836 24.6484,336.6211 Q24.043,337.5586 24.043,338.8477 L24.043,340.2148 Q24.043,341.7578 25.1563,342.793 Q26.2695,343.8086 28.2617,343.8086 Q29.4336,343.8086 30.2539,343.4961 Q30.7422,343.3008 31.2695,342.7539 Q31.6016,342.4219 31.7773,342.3242 Q31.9727,342.2266 32.2266,342.2266 Q32.6367,342.2266 32.9492,342.5586 Q33.2813,342.8711 33.2813,343.3008 Q33.2813,343.7305 32.8516,344.2383 Q32.2266,344.9609 31.2305,345.3711 Q29.8828,345.9375 28.2617,345.9375 Q26.3672,345.9375 24.8633,345.1563 Q23.6328,344.5313 22.7734,343.2031 Q21.9141,341.8555 21.9141,340.2539 L21.9141,338.8086 Q21.9141,337.1484 22.6758,335.7227 Q23.457,334.2773 24.8242,333.5156 Q26.1914,332.7344 27.7344,332.7344 Q28.6523,332.7344 29.4531,332.9492 Q30.2734,333.1445 30.957,333.5938 Z " fill="#000000"/><text fill="#000000" font-family="sans-serif" font-size="17.5" lengthAdjust="spacing" textLength="30" x="45" y="344.8169">dao</text><line style="stroke:#181818;stroke-width:0.625;" x1="10" x2="77.5" y1="358.75" y2="358.75"/><line style="stroke:#181818;stroke-width:0.625;" x1="10" x2="77.5" y1="368.75" y2="368.75"/></g><!--MD5=[a8ae8e6d34387d3eb324bee8367b34c7]
class dao2--><g id="elem_dao2"><rect codeLine="20" fill="#2E8B57" height="60" id="dao2" rx="3.125" ry="3.125" style="stroke:#181818;stroke-width:0.625;" width="70" x="207.5" y="318.75"/><ellipse cx="226.25" cy="338.75" fill="#ADD1B2" rx="13.75" ry="13.75" style="stroke:#181818;stroke-width:1.25;"/><path d="M229.707,333.5938 Q229.9023,333.3203 230.1367,333.1836 Q230.3711,333.0469 230.6445,333.0469 Q231.1133,333.0469 231.4063,333.3789 Q231.6992,333.6914 231.6992,334.4531 L231.6992,336.2695 Q231.6992,337.0313 231.4063,337.3633 Q231.1133,337.6953 230.6445,337.6953 Q230.2148,337.6953 229.9609,337.4414 Q229.707,337.207 229.5703,336.5625 Q229.5117,336.1133 229.2773,335.8789 Q228.8672,335.4102 228.1055,335.1367 Q227.3438,334.8633 226.5625,334.8633 Q225.6055,334.8633 224.8047,335.2734 Q224.0234,335.6836 223.3984,336.6211 Q222.793,337.5586 222.793,338.8477 L222.793,340.2148 Q222.793,341.7578 223.9063,342.793 Q225.0195,343.8086 227.0117,343.8086 Q228.1836,343.8086 229.0039,343.4961 Q229.4922,343.3008 230.0195,342.7539 Q230.3516,342.4219 230.5273,342.3242 Q230.7227,342.2266 230.9766,342.2266 Q231.3867,342.2266 231.6992,342.5586 Q232.0313,342.8711 232.0313,343.3008 Q232.0313,343.7305 231.6016,344.2383 Q230.9766,344.9609 229.9805,345.3711 Q228.6328,345.9375 227.0117,345.9375 Q225.1172,345.9375 223.6133,345.1563 Q222.3828,344.5313 221.5234,343.2031 Q220.6641,341.8555 220.6641,340.2539 L220.6641,338.8086 Q220.6641,337.1484 221.4258,335.7227 Q222.207,334.2773 223.5742,333.5156 Q224.9414,332.7344 226.4844,332.7344 Q227.4023,332.7344 228.2031,332.9492 Q229.0234,333.1445 229.707,333.5938 Z " fill="#000000"/><text fill="#000000" font-family="sans-serif" font-size="17.5" lengthAdjust="spacing" textLength="30" x="243.75" y="344.8169">dao</text><line style="stroke:#181818;stroke-width:0.625;" x1="208.75" x2="276.25" y1="358.75" y2="358.75"/><line style="stroke:#181818;stroke-width:0.625;" x1="208.75" x2="276.25" y1="368.75" y2="368.75"/></g><!--MD5=[7c46d066f5f6a5c9166a7157021c79ed]
class dao3--><g id="elem_dao3"><rect codeLine="21" fill="#2E8B57" height="60" id="dao3" rx="3.125" ry="3.125" style="stroke:#181818;stroke-width:0.625;" width="70" x="406.25" y="318.75"/><ellipse cx="425" cy="338.75" fill="#ADD1B2" rx="13.75" ry="13.75" style="stroke:#181818;stroke-width:1.25;"/><path d="M428.457,333.5938 Q428.6523,333.3203 428.8867,333.1836 Q429.1211,333.0469 429.3945,333.0469 Q429.8633,333.0469 430.1563,333.3789 Q430.4492,333.6914 430.4492,334.4531 L430.4492,336.2695 Q430.4492,337.0313 430.1563,337.3633 Q429.8633,337.6953 429.3945,337.6953 Q428.9648,337.6953 428.7109,337.4414 Q428.457,337.207 428.3203,336.5625 Q428.2617,336.1133 428.0273,335.8789 Q427.6172,335.4102 426.8555,335.1367 Q426.0938,334.8633 425.3125,334.8633 Q424.3555,334.8633 423.5547,335.2734 Q422.7734,335.6836 422.1484,336.6211 Q421.543,337.5586 421.543,338.8477 L421.543,340.2148 Q421.543,341.7578 422.6563,342.793 Q423.7695,343.8086 425.7617,343.8086 Q426.9336,343.8086 427.7539,343.4961 Q428.2422,343.3008 428.7695,342.7539 Q429.1016,342.4219 429.2773,342.3242 Q429.4727,342.2266 429.7266,342.2266 Q430.1367,342.2266 430.4492,342.5586 Q430.7813,342.8711 430.7813,343.3008 Q430.7813,343.7305 430.3516,344.2383 Q429.7266,344.9609 428.7305,345.3711 Q427.3828,345.9375 425.7617,345.9375 Q423.8672,345.9375 422.3633,345.1563 Q421.1328,344.5313 420.2734,343.2031 Q419.4141,341.8555 419.4141,340.2539 L419.4141,338.8086 Q419.4141,337.1484 420.1758,335.7227 Q420.957,334.2773 422.3242,333.5156 Q423.6914,332.7344 425.2344,332.7344 Q426.1523,332.7344 426.9531,332.9492 Q427.7734,333.1445 428.457,333.5938 Z " fill="#000000"/><text fill="#000000" font-family="sans-serif" font-size="17.5" lengthAdjust="spacing" textLength="30" x="442.5" y="344.8169">dao</text><line style="stroke:#181818;stroke-width:0.625;" x1="407.5" x2="475" y1="358.75" y2="358.75"/><line style="stroke:#181818;stroke-width:0.625;" x1="407.5" x2="475" y1="368.75" y2="368.75"/></g><!--MD5=[0e40452ad78ae4a261f21456a88e319b]
reverse link hsff to dao1--><g id="link_hsff_dao1"><path codeLine="23" d="M131.35,226.5125 C112.5875,235.4875 94.525,246.875 80,261.25 C64.3,276.7875 55.05,300.1625 49.825,318.65 " fill="none" id="hsff-backto-dao1" style="stroke:#181818;stroke-width:1.25;"/><polygon fill="#181818" points="137.1875,223.8,124.878,223.9968,131.5175,226.4293,129.0849,233.0688,137.1875,223.8" style="stroke:#181818;stroke-width:1.25;"/><text fill="#000000" font-family="sans-serif" font-size="16.25" lengthAdjust="spacing" textLength="146.25" x="81.25" y="277.2107">getSessionFactory()</text></g><!--MD5=[6a57e6702e2a1feb1e106bc9335b9afb]
reverse link hsff to dao2--><g id="link_hsff_dao2"><path codeLine="24" d="M240.1125,230.7 C239.55,240.5875 239.025,251.3375 238.75,261.25 C238.2125,280.275 239.125,301.65 240.1875,318.3625 " fill="none" id="hsff-backto-dao2" style="stroke:#181818;stroke-width:1.25;"/><polygon fill="#181818" points="240.5,224.0125,234.8645,234.958,240.1424,230.2523,244.8482,235.5301,240.5,224.0125" style="stroke:#181818;stroke-width:1.25;"/><text fill="#000000" font-family="sans-serif" font-size="16.25" lengthAdjust="spacing" textLength="146.25" x="240" y="277.2107">getSessionFactory()</text></g><!--MD5=[a18d405c2c952892d4bf5fc65d78109b]
reverse link hsff to dao3--><g id="link_hsff_dao3"><path codeLine="25" d="M338.9375,226.6125 C358.075,235.7875 377.0125,247.225 392.5,261.25 C409.7125,276.8375 422.325,299.975 430.4,318.3625 " fill="none" id="hsff-backto-dao3" style="stroke:#181818;stroke-width:1.25;"/><polygon fill="#181818" points="333,223.85,341.0897,233.13,338.6664,226.4872,345.3092,224.0638,333,223.85" style="stroke:#181818;stroke-width:1.25;"/><text fill="#000000" font-family="sans-serif" font-size="16.25" lengthAdjust="spacing" textLength="146.25" x="410" y="277.2107">getSessionFactory()</text></g><!--MD5=[171ff2cbe7cedf10bd699f62efc9e4cb]
reverse link hsff to config--><g id="link_hsff_config"><path codeLine="27" d="M393.3375,193.75 C460.3875,193.75 536.25,193.75 590.525,193.75 " fill="none" id="hsff-backto-config" style="stroke:#181818;stroke-width:1.25;"/><polygon fill="#181818" points="386.875,193.75,398.125,198.75,393.125,193.75,398.125,188.75,386.875,193.75" style="stroke:#181818;stroke-width:1.25;"/><text fill="#000000" font-family="sans-serif" font-size="16.25" lengthAdjust="spacing" textLength="157.5" x="410" y="185.9607">buildSessionFactory()</text></g><!--MD5=[5ed3ef6db0518cd5abec6be6d45605f2]
reverse link entity1 to config--><g id="link_entity1_config"><path codeLine="29" d="M463.6125,74.7 C471.9125,92.1125 484.025,112.3875 500,126.25 C525.7,148.5625 559.9,163.9875 590.4,174.2875 " fill="none" id="entity1-backto-config" style="stroke:#181818;stroke-width:1.25;"/><polygon fill="#181818" points="460.9375,68.9125,461.1195,81.2222,463.56,74.5857,470.1966,77.0262,460.9375,68.9125" style="stroke:#181818;stroke-width:1.25;"/><text fill="#000000" font-family="sans-serif" font-size="16.25" lengthAdjust="spacing" textLength="151.25" x="501.25" y="122.2107">addAnnotatedClass()</text></g><!--MD5=[920869420c2ea565e23e5d97ffb07f3e]
reverse link entity2 to config--><g id="link_entity2_config"><path codeLine="30" d="M663.75,75.625 C663.75,102.3875 663.75,138.5875 663.75,163.5625 " fill="none" id="entity2-backto-config" style="stroke:#181818;stroke-width:1.25;"/><polygon fill="#181818" points="663.75,69.0375,658.75,80.2875,663.75,75.2875,668.75,80.2875,663.75,69.0375" style="stroke:#181818;stroke-width:1.25;"/><text fill="#000000" font-family="sans-serif" font-size="16.25" lengthAdjust="spacing" textLength="151.25" x="665" y="122.2107">addAnnotatedClass()</text></g><!--MD5=[6ab72cb471a011a06ba54150ba63338d]
reverse link entity3 to config--><g id="link_entity3_config"><path codeLine="31" d="M863.8875,74.7 C855.5875,92.1125 843.475,112.3875 827.5,126.25 C801.8,148.5625 767.6,163.9875 737.1,174.2875 " fill="none" id="entity3-backto-config" style="stroke:#181818;stroke-width:1.25;"/><polygon fill="#181818" points="866.5625,68.9125,857.3034,77.0262,863.94,74.5857,866.3805,81.2222,866.5625,68.9125" style="stroke:#181818;stroke-width:1.25;"/><text fill="#000000" font-family="sans-serif" font-size="16.25" lengthAdjust="spacing" textLength="151.25" x="846.25" y="122.2107">addAnnotatedClass()</text></g><!--MD5=[77f4b61911b33abf4b845d281e73ef09]
link config to cfg--><g id="link_config_cfg"><path codeLine="33" d="M736.9875,193.75 C772.0625,193.75 814.4,193.75 851.525,193.75 " fill="none" id="config-to-cfg" style="stroke:#181818;stroke-width:1.25;"/><polygon fill="#181818" points="857.9125,193.75,846.6625,188.75,851.6625,193.75,846.6625,198.75,857.9125,193.75" style="stroke:#181818;stroke-width:1.25;"/><text fill="#000000" font-family="sans-serif" font-size="16.25" lengthAdjust="spacing" textLength="75" x="760" y="185.9607">configure()</text></g><!--MD5=[e5778e17e391ff9e939884ffc1f5bcc4]
link cfg to mapping1--><g id="link_cfg_mapping1"><path codeLine="34" d="M907.5625,216.525 C862.2375,244.45 783.3125,293.0875 735.4375,322.5875 " fill="none" id="cfg-to-mapping1" style="stroke:#181818;stroke-width:1.25;"/><polygon fill="#181818" points="729.7625,326.0875,741.9657,324.4611,735.0884,322.8169,736.7327,315.9396,729.7625,326.0875" style="stroke:#181818;stroke-width:1.25;"/><text fill="#000000" font-family="sans-serif" font-size="16.25" lengthAdjust="spacing" textLength="62.5" x="835" y="277.2107">resource</text></g><!--MD5=[6b6c30e9e96b62e6708c0eb679c196aa]
link cfg to mapping2--><g id="link_cfg_mapping2"><path codeLine="35" d="M942.5,216.525 C942.5,243.55 942.5,289.95 942.5,319.65 " fill="none" id="cfg-to-mapping2" style="stroke:#181818;stroke-width:1.25;"/><polygon fill="#181818" points="942.5,326.0875,947.5,314.8375,942.5,319.8375,937.5,314.8375,942.5,326.0875" style="stroke:#181818;stroke-width:1.25;"/><text fill="#000000" font-family="sans-serif" font-size="16.25" lengthAdjust="spacing" textLength="62.5" x="943.75" y="277.2107">resource</text></g><!--MD5=[2316496f40c44cbbcd83bb1bc0257c4c]
link cfg to mapping3--><g id="link_cfg_mapping3"><path codeLine="36" d="M977.4375,216.525 C1022.7625,244.45 1101.6875,293.0875 1149.5625,322.5875 " fill="none" id="cfg-to-mapping3" style="stroke:#181818;stroke-width:1.25;"/><polygon fill="#181818" points="1155.2375,326.0875,1148.2673,315.9396,1149.9116,322.8169,1143.0343,324.4611,1155.2375,326.0875" style="stroke:#181818;stroke-width:1.25;"/><text fill="#000000" font-family="sans-serif" font-size="16.25" lengthAdjust="spacing" textLength="62.5" x="1081.25" y="277.2107">resource</text></g><!--MD5=[cfe24b8dc5a1aa61cc5be52a9fb2b26e]
link cfg to mapping4--><g id="link_cfg_mapping4"><path codeLine="37" d="M1027.0375,193.75 C1058.6375,193.75 1094.9875,193.75 1128.5,193.75 " fill="none" id="cfg-to-mapping4" style="stroke:#181818;stroke-width:1.25;"/><polygon fill="#181818" points="1135.15,193.75,1123.9,188.75,1128.9,193.75,1123.9,198.75,1135.15,193.75" style="stroke:#181818;stroke-width:1.25;"/><text fill="#000000" font-family="sans-serif" font-size="16.25" lengthAdjust="spacing" textLength="62.5" x="1050" y="185.9607">resource</text></g><!--MD5=[1ed9ba9d407e43ceba079f89e05501cd]
@startuml
'https://plantuml.com/sequence-diagram

allowmixing

class "HibernteSessionFactoryFactory" as hsff #lightgreen
class "Configuration" as config #indianred

class "Annotated Entity" as entity1 #wheat
class "Annotated Entity" as entity2 #wheat
class "Annotated Entity" as entity3 #wheat


file "hibernate.hbm.xml" as cfg #lemonchiffon
file "entitymapping.hbm.xml" as mapping1 #lemonchiffon
file "entitymapping.hbm.xml" as mapping2 #lemonchiffon
file "entitymapping.hbm.xml" as mapping3 #lemonchiffon
file "entitymapping.hbm.xml" as mapping4 #lemonchiffon

class "dao" as dao1 #seagreen
class "dao" as dao2 #seagreen
class "dao" as dao3 #seagreen

hsff <- - dao1 : getSessionFactory()
hsff <- - dao2 : getSessionFactory()
hsff <- - dao3 : getSessionFactory()

hsff <- config : buildSessionFactory()

entity1 <- - config : addAnnotatedClass()
entity2 <- - config : addAnnotatedClass()
entity3 <- - config : addAnnotatedClass()

config -> cfg : configure()
cfg - -> mapping1 : resource
cfg - -> mapping2 : resource
cfg - -> mapping3 : resource
cfg -> mapping4 : resource



@enduml

@startuml

allowmixing

class "HibernteSessionFactoryFactory" as hsff #lightgreen
class "Configuration" as config #indianred

class "Annotated Entity" as entity1 #wheat
class "Annotated Entity" as entity2 #wheat
class "Annotated Entity" as entity3 #wheat


file "hibernate.hbm.xml" as cfg #lemonchiffon
file "entitymapping.hbm.xml" as mapping1 #lemonchiffon
file "entitymapping.hbm.xml" as mapping2 #lemonchiffon
file "entitymapping.hbm.xml" as mapping3 #lemonchiffon
file "entitymapping.hbm.xml" as mapping4 #lemonchiffon

class "dao" as dao1 #seagreen
class "dao" as dao2 #seagreen
class "dao" as dao3 #seagreen

hsff <- - dao1 : getSessionFactory()
hsff <- - dao2 : getSessionFactory()
hsff <- - dao3 : getSessionFactory()

hsff <- config : buildSessionFactory()

entity1 <- - config : addAnnotatedClass()
entity2 <- - config : addAnnotatedClass()
entity3 <- - config : addAnnotatedClass()

config -> cfg : configure()
cfg - -> mapping1 : resource
cfg - -> mapping2 : resource
cfg - -> mapping3 : resource
cfg -> mapping4 : resource



@enduml

PlantUML version 1.2022.7(Mon Aug 22 19:01:30 CEST 2022)
(GPL source distribution)
Java Runtime: OpenJDK Runtime Environment
JVM: OpenJDK 64-Bit Server VM
Default Encoding: Cp1252
Language: de
Country: DE
--></g></svg>