<?xml version="1.0" encoding="UTF-8" standalone="no"?><svg xmlns="http://www.w3.org/2000/svg" xmlns:xlink="http://www.w3.org/1999/xlink" contentScriptType="application/ecmascript" contentStyleType="text/css" height="313px" preserveAspectRatio="none" style="width:357px;height:313px;background:#FFFFFF;" version="1.1" viewBox="0 0 357 313" width="357px" zoomAndPan="magnify"><defs><filter height="300%" id="f1xmop9818jzf7" width="300%" x="-1" y="-1"><feGaussianBlur result="blurOut" stdDeviation="2.0"/><feColorMatrix in="blurOut" result="blurOut2" type="matrix" values="0 0 0 0 0 0 0 0 0 0 0 0 0 0 0 0 0 0 .4 0"/><feOffset dx="4.0" dy="4.0" in="blurOut2" result="blurOut3"/><feBlend in="SourceGraphic" in2="blurOut3" mode="normal"/></filter></defs><g><!--MD5=[7bc5716ff34e8b57d97376709b158217]
class Mediator--><rect codeLine="3" fill="#FEFECE" filter="url(#f1xmop9818jzf7)" height="48" id="Mediator" style="stroke:#A80036;stroke-width:1.5;" width="79" x="55" y="14"/><ellipse cx="70" cy="30" fill="#B4A7E5" rx="11" ry="11" style="stroke:#A80036;stroke-width:1.0;"/><path d="M71,27 L71,33 L73,33 L73.4844,33 L74,33.625 L74,34 L74,34.375 L73.4844,35 L73,35 L67,35 L66.5156,35 L66,34.375 L66,34 L66,33.625 L66.5156,33 L67,33 L69,33 L69,27 L67,27 L66.5156,27 L66,26.375 L66,26 L66,25.625 L66.5156,25 L67,25 L73,25 L73.4844,25 L74,25.625 L74,26 L74,26.375 L73.4844,27 L73,27 L71,27 Z " fill="#000000"/><text fill="#000000" font-family="sans-serif" font-size="12" font-style="italic" lengthAdjust="spacing" textLength="47" x="84" y="34.9102">Mediator</text><line style="stroke:#A80036;stroke-width:1.5;" x1="56" x2="133" y1="46" y2="46"/><line style="stroke:#A80036;stroke-width:1.5;" x1="56" x2="133" y1="54" y2="54"/><!--MD5=[57b036fc3adc6f308410e06146624c7b]
class ConcreteMediator--><rect codeLine="4" fill="#FEFECE" filter="url(#f1xmop9818jzf7)" height="61.8359" id="ConcreteMediator" style="stroke:#A80036;stroke-width:1.5;" width="129" x="9" y="129"/><ellipse cx="24" cy="145" fill="#ADD1B2" rx="11" ry="11" style="stroke:#A80036;stroke-width:1.0;"/><path d="M26,141.5 Q26.2031,141 26.4375,140.75 Q26.6719,140.5 26.9375,140.5 Q27.4063,140.5 27.7031,140.7813 Q28,141.0625 28,141.7188 L28,143.2813 Q28,143.9375 27.7188,144.2188 Q27.4375,144.5 27,144.5 Q26.6094,144.5 26.3594,144.3281 Q26.1094,144.1563 26,143.7031 Q25.9531,143.3906 25.7813,143.2188 Q25.4688,142.8906 24.9063,142.7031 Q24.3438,142.5 23.7813,142.5 Q23.0781,142.5 22.4844,142.7813 Q21.9063,143.0625 21.4531,143.6875 Q21,144.3125 21,145.1719 L21,146.0938 Q21,147.125 21.8438,147.8125 Q22.6875,148.5 24.1875,148.5 Q25.0781,148.5 25.7031,148.2969 Q26.0625,148.1875 26.4688,147.8281 Q26.7344,147.625 26.875,147.5625 Q27.0156,147.5 27.1875,147.5 Q27.5156,147.5 27.75,147.7656 Q28,148.0156 28,148.375 Q28,148.7188 27.6563,149.125 Q27.1563,149.7188 26.3594,150.0469 Q25.3125,150.5 24.0313,150.5 Q22.5313,150.5 21.3281,149.9063 Q20.3594,149.4375 19.6719,148.4219 Q19,147.4063 19,146.2031 L19,145.1094 Q19,143.8594 19.5938,142.7656 Q20.2031,141.6719 21.25,141.0938 Q22.3125,140.5 23.5,140.5 Q24.2188,140.5 24.8438,140.75 Q25.4688,141 26,141.5 Z " fill="#000000"/><text fill="#000000" font-family="sans-serif" font-size="12" lengthAdjust="spacing" textLength="97" x="38" y="149.9102">ConcreteMediator</text><line style="stroke:#A80036;stroke-width:1.5;" x1="10" x2="137" y1="161" y2="161"/><polygon fill="none" points="20,167,24,171,20,175,16,171" style="stroke:#B38D22;stroke-width:1.0;"/><text fill="#000000" font-family="sans-serif" font-size="11" lengthAdjust="spacing" textLength="99" x="29" y="176.4189">colleague: Colleague</text><line style="stroke:#A80036;stroke-width:1.5;" x1="10" x2="137" y1="182.8359" y2="182.8359"/><!--MD5=[dce1c4a99d6d78320dbd9395e5caa416]
class Colleague--><rect codeLine="8" fill="#FEFECE" filter="url(#f1xmop9818jzf7)" height="61.8359" id="Colleague" style="stroke:#A80036;stroke-width:1.5;" width="114" x="189.5" y="7"/><ellipse cx="215.75" cy="23" fill="#A9DCDF" rx="11" ry="11" style="stroke:#A80036;stroke-width:1.0;"/><path d="M217.5,24.5 L214.2031,24.5 L213.7656,25.5 L213.7656,25.5 L214.2344,25.5 L214.75,26.125 L214.75,26.5 L214.75,26.875 L214.2344,27.5 L213.7656,27.5 L211.875,27.5 L211.2656,27.5 L210.75,26.875 L210.75,26.5 L210.75,26.125 L211.2656,25.5 L211.875,25.5 L214.1875,19.5 L213.3125,19.5 L212.2656,19.5 L211.75,18.875 L211.75,18.5 L211.75,18.125 L212.2656,17.5 L213.3125,17.5 L216.9844,17.5 L219.6719,25.5 L220.2344,25.5 L220.2344,25.5 L220.75,26.125 L220.75,26.5 L220.75,26.875 L220.2344,27.5 L219.6719,27.5 L217.7813,27.5 L217.2656,27.5 L216.75,26.875 L216.75,26.5 L216.75,26.125 L217.2656,25.5 L217.7813,25.5 L217.7813,25.5 L217.5,24.5 Z M216.9531,22.5 L215.75,18.9219 L214.7188,22.5 L216.9531,22.5 Z " fill="#000000"/><text fill="#000000" font-family="sans-serif" font-size="12" font-style="italic" lengthAdjust="spacing" textLength="57" x="232.25" y="27.9102">Colleague</text><line style="stroke:#A80036;stroke-width:1.5;" x1="190.5" x2="302.5" y1="39" y2="39"/><polygon fill="none" points="200.5,45,204.5,49,200.5,53,196.5,49" style="stroke:#B38D22;stroke-width:1.0;"/><text fill="#000000" font-family="sans-serif" font-size="11" lengthAdjust="spacing" textLength="88" x="209.5" y="54.4189">mediator: mediator</text><line style="stroke:#A80036;stroke-width:1.5;" x1="190.5" x2="302.5" y1="60.8359" y2="60.8359"/><!--MD5=[ca68ea5d22cc660f11f70e3cb2736ceb]
class ConcreteColleague1--><rect codeLine="11" fill="#FEFECE" filter="url(#f1xmop9818jzf7)" height="48" id="ConcreteColleague1" style="stroke:#A80036;stroke-width:1.5;" width="146" x="173.5" y="136"/><ellipse cx="188.5" cy="152" fill="#ADD1B2" rx="11" ry="11" style="stroke:#A80036;stroke-width:1.0;"/><path d="M190.5,148.5 Q190.7031,148 190.9375,147.75 Q191.1719,147.5 191.4375,147.5 Q191.9063,147.5 192.2031,147.7813 Q192.5,148.0625 192.5,148.7188 L192.5,150.2813 Q192.5,150.9375 192.2188,151.2188 Q191.9375,151.5 191.5,151.5 Q191.1094,151.5 190.8594,151.3281 Q190.6094,151.1563 190.5,150.7031 Q190.4531,150.3906 190.2813,150.2188 Q189.9688,149.8906 189.4063,149.7031 Q188.8438,149.5 188.2813,149.5 Q187.5781,149.5 186.9844,149.7813 Q186.4063,150.0625 185.9531,150.6875 Q185.5,151.3125 185.5,152.1719 L185.5,153.0938 Q185.5,154.125 186.3438,154.8125 Q187.1875,155.5 188.6875,155.5 Q189.5781,155.5 190.2031,155.2969 Q190.5625,155.1875 190.9688,154.8281 Q191.2344,154.625 191.375,154.5625 Q191.5156,154.5 191.6875,154.5 Q192.0156,154.5 192.25,154.7656 Q192.5,155.0156 192.5,155.375 Q192.5,155.7188 192.1563,156.125 Q191.6563,156.7188 190.8594,157.0469 Q189.8125,157.5 188.5313,157.5 Q187.0313,157.5 185.8281,156.9063 Q184.8594,156.4375 184.1719,155.4219 Q183.5,154.4063 183.5,153.2031 L183.5,152.1094 Q183.5,150.8594 184.0938,149.7656 Q184.7031,148.6719 185.75,148.0938 Q186.8125,147.5 188,147.5 Q188.7188,147.5 189.3438,147.75 Q189.9688,148 190.5,148.5 Z " fill="#000000"/><text fill="#000000" font-family="sans-serif" font-size="12" lengthAdjust="spacing" textLength="114" x="202.5" y="156.9102">ConcreteColleague1</text><line style="stroke:#A80036;stroke-width:1.5;" x1="174.5" x2="318.5" y1="168" y2="168"/><line style="stroke:#A80036;stroke-width:1.5;" x1="174.5" x2="318.5" y1="176" y2="176"/><!--MD5=[aa16953ec827ad9fa4110d3a7a9b0524]
class ConcreteColleague2--><rect codeLine="12" fill="#FEFECE" filter="url(#f1xmop9818jzf7)" height="48" id="ConcreteColleague2" style="stroke:#A80036;stroke-width:1.5;" width="146" x="149.5" y="251"/><ellipse cx="164.5" cy="267" fill="#ADD1B2" rx="11" ry="11" style="stroke:#A80036;stroke-width:1.0;"/><path d="M166.5,263.5 Q166.7031,263 166.9375,262.75 Q167.1719,262.5 167.4375,262.5 Q167.9063,262.5 168.2031,262.7813 Q168.5,263.0625 168.5,263.7188 L168.5,265.2813 Q168.5,265.9375 168.2188,266.2188 Q167.9375,266.5 167.5,266.5 Q167.1094,266.5 166.8594,266.3281 Q166.6094,266.1563 166.5,265.7031 Q166.4531,265.3906 166.2813,265.2188 Q165.9688,264.8906 165.4063,264.7031 Q164.8438,264.5 164.2813,264.5 Q163.5781,264.5 162.9844,264.7813 Q162.4063,265.0625 161.9531,265.6875 Q161.5,266.3125 161.5,267.1719 L161.5,268.0938 Q161.5,269.125 162.3438,269.8125 Q163.1875,270.5 164.6875,270.5 Q165.5781,270.5 166.2031,270.2969 Q166.5625,270.1875 166.9688,269.8281 Q167.2344,269.625 167.375,269.5625 Q167.5156,269.5 167.6875,269.5 Q168.0156,269.5 168.25,269.7656 Q168.5,270.0156 168.5,270.375 Q168.5,270.7188 168.1563,271.125 Q167.6563,271.7188 166.8594,272.0469 Q165.8125,272.5 164.5313,272.5 Q163.0313,272.5 161.8281,271.9063 Q160.8594,271.4375 160.1719,270.4219 Q159.5,269.4063 159.5,268.2031 L159.5,267.1094 Q159.5,265.8594 160.0938,264.7656 Q160.7031,263.6719 161.75,263.0938 Q162.8125,262.5 164,262.5 Q164.7188,262.5 165.3438,262.75 Q165.9688,263 166.5,263.5 Z " fill="#000000"/><text fill="#000000" font-family="sans-serif" font-size="12" lengthAdjust="spacing" textLength="114" x="178.5" y="271.9102">ConcreteColleague2</text><line style="stroke:#A80036;stroke-width:1.5;" x1="150.5" x2="294.5" y1="283" y2="283"/><line style="stroke:#A80036;stroke-width:1.5;" x1="150.5" x2="294.5" y1="291" y2="291"/><!--MD5=[8e81ab3b58f78fae49244c829d83e031]
reverse link Mediator to ConcreteMediator--><path d="M86.96,82.06 C84.27,97.48 81.28,114.54 78.81,128.66 " fill="none" id="Mediator-backto-ConcreteMediator" style="stroke:#A80036;stroke-width:1.0;stroke-dasharray:7.0,7.0;"/><polygon fill="none" points="80.11,80.63,90.45,62.14,93.9,83.04,80.11,80.63" style="stroke:#A80036;stroke-width:1.0;"/><!--MD5=[3392745185fe7eea56fb87495156591e]
reverse link Colleague to ConcreteColleague1--><path d="M246.5,89.54 C246.5,105.68 246.5,122.75 246.5,135.92 " fill="none" id="Colleague-backto-ConcreteColleague1" style="stroke:#A80036;stroke-width:1.0;"/><polygon fill="none" points="239.5,89.28,246.5,69.28,253.5,89.28,239.5,89.28" style="stroke:#A80036;stroke-width:1.0;"/><!--MD5=[0a280d49a9a40496cfc242ad7a48962b]
reverse link Colleague to ConcreteColleague2--><path d="M305.01,83.17 C318.17,96.33 330.35,111.87 337.5,129 C348.12,154.43 350.05,166.47 337.5,191 C324.04,217.31 297.94,237.19 273.99,250.89 " fill="none" id="Colleague-backto-ConcreteColleague2" style="stroke:#A80036;stroke-width:1.0;"/><polygon fill="none" points="299.96,88.04,289.95,69.37,309.42,77.72,299.96,88.04" style="stroke:#A80036;stroke-width:1.0;"/><!--MD5=[4d39911a0cd9d54fb70f2ee4e30f8079]
reverse link Mediator to Colleague--><path codeLine="14" d="M139.42,38 C155.97,38 172.52,38 189.08,38 " fill="none" id="Mediator-backto-Colleague" style="stroke:#A80036;stroke-width:1.0;"/><polygon fill="#A80036" points="134.28,38,143.28,42,139.28,38,143.28,34,134.28,38" style="stroke:#A80036;stroke-width:1.0;"/><!--MD5=[d5f7639e83e11b6fb8433979aa2fe52c]
link ConcreteMediator to ConcreteColleague1--><path codeLine="15" d="M138.04,160 C148.02,160 158,160 167.98,160 " fill="none" id="ConcreteMediator-to-ConcreteColleague1" style="stroke:#A80036;stroke-width:1.0;"/><polygon fill="#A80036" points="173.2,160,164.2,156,168.2,160,164.2,164,173.2,160" style="stroke:#A80036;stroke-width:1.0;"/><!--MD5=[fb7cae757ab45e8d8946829f0527933e]
link ConcreteMediator to ConcreteColleague2--><path codeLine="16" d="M113.43,191.28 C136.64,208.88 165.6,230.85 187.85,247.72 " fill="none" id="ConcreteMediator-to-ConcreteColleague2" style="stroke:#A80036;stroke-width:1.0;"/><polygon fill="#A80036" points="191.92,250.81,187.1545,242.1909,187.932,247.794,182.3289,248.5716,191.92,250.81" style="stroke:#A80036;stroke-width:1.0;"/><!--MD5=[57a4db960d66831659ae9977b617165e]
@startuml
'https://plantuml.com/class-diagram

interface Mediator
class ConcreteMediator implements Mediator {
    # colleague: Colleague
}

abstract class Colleague {
    # mediator: mediator
}
class ConcreteColleague1 extends Colleague
class ConcreteColleague2 extends Colleague

Mediator <- Colleague
ConcreteMediator -> ConcreteColleague1
ConcreteMediator - -> ConcreteColleague2
@enduml

@startuml

interface Mediator
class ConcreteMediator implements Mediator {
    # colleague: Colleague
}

abstract class Colleague {
    # mediator: mediator
}
class ConcreteColleague1 extends Colleague
class ConcreteColleague2 extends Colleague

Mediator <- Colleague
ConcreteMediator -> ConcreteColleague1
ConcreteMediator - -> ConcreteColleague2
@enduml

PlantUML version 1.2022.1(Tue Feb 01 19:19:58 CET 2022)
(GPL source distribution)
Java Runtime: OpenJDK Runtime Environment
JVM: OpenJDK 64-Bit Server VM
Default Encoding: Cp1252
Language: de
Country: DE
--></g></svg>